<mxfile host="Electron" agent="Mozilla/5.0 (Windows NT 10.0; Win64; x64) AppleWebKit/537.36 (KHTML, like Gecko) draw.io/27.0.9 Chrome/134.0.6998.205 Electron/35.4.0 Safari/537.36" version="27.0.9">
  <diagram name="Seite-1" id="vSdniQgYtykWZWULGMNn">
    <mxGraphModel dx="290" dy="646" grid="1" gridSize="10" guides="1" tooltips="1" connect="1" arrows="1" fold="1" page="1" pageScale="1" pageWidth="1169" pageHeight="827" math="0" shadow="0">
      <root>
        <mxCell id="0" />
        <mxCell id="1" parent="0" />
        <mxCell id="0JHXW9w1qpoO5bJHKPcN-34" style="edgeStyle=orthogonalEdgeStyle;rounded=0;orthogonalLoop=1;jettySize=auto;html=1;exitX=0.25;exitY=1;exitDx=0;exitDy=0;entryX=0.25;entryY=0;entryDx=0;entryDy=0;" parent="1" source="0JHXW9w1qpoO5bJHKPcN-1" target="0JHXW9w1qpoO5bJHKPcN-4" edge="1">
          <mxGeometry relative="1" as="geometry" />
        </mxCell>
        <mxCell id="0JHXW9w1qpoO5bJHKPcN-38" value="HTTP API Request" style="edgeLabel;html=1;align=center;verticalAlign=middle;resizable=0;points=[];" parent="0JHXW9w1qpoO5bJHKPcN-34" vertex="1" connectable="0">
          <mxGeometry x="-0.0243" y="2" relative="1" as="geometry">
            <mxPoint as="offset" />
          </mxGeometry>
        </mxCell>
        <mxCell id="0JHXW9w1qpoO5bJHKPcN-1" value="" style="rounded=0;whiteSpace=wrap;html=1;" parent="1" vertex="1">
          <mxGeometry x="110" y="110" width="250" height="130" as="geometry" />
        </mxCell>
        <mxCell id="0JHXW9w1qpoO5bJHKPcN-2" value="&lt;font style=&quot;font-size: 18px;&quot;&gt;Webserver&lt;/font&gt;" style="text;html=1;align=center;verticalAlign=middle;whiteSpace=wrap;rounded=0;" parent="1" vertex="1">
          <mxGeometry x="185" y="110" width="90" height="30" as="geometry" />
        </mxCell>
        <mxCell id="0JHXW9w1qpoO5bJHKPcN-3" value="&lt;font style=&quot;font-size: 17px;&quot;&gt;Angular Frontend&lt;/font&gt;" style="rounded=0;whiteSpace=wrap;html=1;" parent="1" vertex="1">
          <mxGeometry x="130" y="150" width="210" height="60" as="geometry" />
        </mxCell>
        <mxCell id="0JHXW9w1qpoO5bJHKPcN-35" style="edgeStyle=orthogonalEdgeStyle;rounded=0;orthogonalLoop=1;jettySize=auto;html=1;exitX=0.25;exitY=1;exitDx=0;exitDy=0;entryX=0.25;entryY=0;entryDx=0;entryDy=0;" parent="1" source="0JHXW9w1qpoO5bJHKPcN-4" target="0JHXW9w1qpoO5bJHKPcN-7" edge="1">
          <mxGeometry relative="1" as="geometry" />
        </mxCell>
        <mxCell id="0JHXW9w1qpoO5bJHKPcN-40" value="Datenbank-Query" style="edgeLabel;html=1;align=center;verticalAlign=middle;resizable=0;points=[];" parent="0JHXW9w1qpoO5bJHKPcN-35" vertex="1" connectable="0">
          <mxGeometry x="-0.1667" y="-1" relative="1" as="geometry">
            <mxPoint as="offset" />
          </mxGeometry>
        </mxCell>
        <mxCell id="0JHXW9w1qpoO5bJHKPcN-37" style="edgeStyle=orthogonalEdgeStyle;rounded=0;orthogonalLoop=1;jettySize=auto;html=1;exitX=0.75;exitY=0;exitDx=0;exitDy=0;entryX=0.75;entryY=1;entryDx=0;entryDy=0;" parent="1" source="0JHXW9w1qpoO5bJHKPcN-4" target="0JHXW9w1qpoO5bJHKPcN-1" edge="1">
          <mxGeometry relative="1" as="geometry" />
        </mxCell>
        <mxCell id="0JHXW9w1qpoO5bJHKPcN-39" value="HTTP API Response" style="edgeLabel;html=1;align=center;verticalAlign=middle;resizable=0;points=[];" parent="0JHXW9w1qpoO5bJHKPcN-37" vertex="1" connectable="0">
          <mxGeometry x="0.1263" relative="1" as="geometry">
            <mxPoint as="offset" />
          </mxGeometry>
        </mxCell>
        <mxCell id="0JHXW9w1qpoO5bJHKPcN-4" value="" style="rounded=0;whiteSpace=wrap;html=1;" parent="1" vertex="1">
          <mxGeometry x="105" y="290" width="250" height="130" as="geometry" />
        </mxCell>
        <mxCell id="0JHXW9w1qpoO5bJHKPcN-5" value="&lt;font style=&quot;font-size: 18px;&quot;&gt;Applikationsserver&lt;/font&gt;" style="text;html=1;align=center;verticalAlign=middle;whiteSpace=wrap;rounded=0;" parent="1" vertex="1">
          <mxGeometry x="147.5" y="290" width="165" height="30" as="geometry" />
        </mxCell>
        <mxCell id="0JHXW9w1qpoO5bJHKPcN-6" value="&lt;font style=&quot;font-size: 17px;&quot;&gt;RESTful API&lt;/font&gt;" style="rounded=0;whiteSpace=wrap;html=1;" parent="1" vertex="1">
          <mxGeometry x="125" y="330" width="210" height="30" as="geometry" />
        </mxCell>
        <mxCell id="0JHXW9w1qpoO5bJHKPcN-36" style="edgeStyle=orthogonalEdgeStyle;rounded=0;orthogonalLoop=1;jettySize=auto;html=1;exitX=0.75;exitY=0;exitDx=0;exitDy=0;entryX=0.75;entryY=1;entryDx=0;entryDy=0;" parent="1" source="0JHXW9w1qpoO5bJHKPcN-7" target="0JHXW9w1qpoO5bJHKPcN-4" edge="1">
          <mxGeometry relative="1" as="geometry" />
        </mxCell>
        <mxCell id="0JHXW9w1qpoO5bJHKPcN-41" value="Ergebnis der Abfrage" style="edgeLabel;html=1;align=center;verticalAlign=middle;resizable=0;points=[];" parent="0JHXW9w1qpoO5bJHKPcN-36" vertex="1" connectable="0">
          <mxGeometry x="0.2619" y="-1" relative="1" as="geometry">
            <mxPoint as="offset" />
          </mxGeometry>
        </mxCell>
        <mxCell id="0JHXW9w1qpoO5bJHKPcN-7" value="" style="rounded=0;whiteSpace=wrap;html=1;" parent="1" vertex="1">
          <mxGeometry x="105" y="480" width="250" height="130" as="geometry" />
        </mxCell>
        <mxCell id="0JHXW9w1qpoO5bJHKPcN-8" value="&lt;font style=&quot;font-size: 18px;&quot;&gt;Datenbankserver&lt;/font&gt;" style="text;html=1;align=center;verticalAlign=middle;whiteSpace=wrap;rounded=0;" parent="1" vertex="1">
          <mxGeometry x="152.5" y="480" width="155" height="30" as="geometry" />
        </mxCell>
        <mxCell id="0JHXW9w1qpoO5bJHKPcN-9" value="&lt;font style=&quot;font-size: 17px;&quot;&gt;SQLite&lt;/font&gt;" style="rounded=0;whiteSpace=wrap;html=1;" parent="1" vertex="1">
          <mxGeometry x="125" y="520" width="210" height="60" as="geometry" />
        </mxCell>
        <mxCell id="0JHXW9w1qpoO5bJHKPcN-10" value="&lt;font style=&quot;font-size: 17px;&quot;&gt;Geschäftslogik der Anwendung&lt;/font&gt;" style="rounded=0;whiteSpace=wrap;html=1;" parent="1" vertex="1">
          <mxGeometry x="125" y="370" width="210" height="44" as="geometry" />
        </mxCell>
        <mxCell id="0JHXW9w1qpoO5bJHKPcN-11" value="" style="rounded=0;whiteSpace=wrap;html=1;" parent="1" vertex="1">
          <mxGeometry x="500" y="80" width="205" height="560" as="geometry" />
        </mxCell>
        <mxCell id="0JHXW9w1qpoO5bJHKPcN-12" value="&lt;font style=&quot;font-size: 21px;&quot;&gt;Endgerät&lt;/font&gt;" style="text;html=1;align=center;verticalAlign=middle;whiteSpace=wrap;rounded=0;" parent="1" vertex="1">
          <mxGeometry x="553.75" y="80" width="97.5" height="30" as="geometry" />
        </mxCell>
        <mxCell id="0JHXW9w1qpoO5bJHKPcN-30" style="edgeStyle=orthogonalEdgeStyle;rounded=0;orthogonalLoop=1;jettySize=auto;html=1;exitX=0;exitY=0.5;exitDx=0;exitDy=0;entryX=1;entryY=0.25;entryDx=0;entryDy=0;" parent="1" source="0JHXW9w1qpoO5bJHKPcN-13" target="0JHXW9w1qpoO5bJHKPcN-1" edge="1">
          <mxGeometry relative="1" as="geometry">
            <Array as="points">
              <mxPoint x="460" y="370" />
              <mxPoint x="460" y="143" />
            </Array>
          </mxGeometry>
        </mxCell>
        <mxCell id="0JHXW9w1qpoO5bJHKPcN-33" value="HTTP&amp;nbsp;&lt;div&gt;Request&lt;/div&gt;" style="edgeLabel;html=1;align=center;verticalAlign=middle;resizable=0;points=[];" parent="0JHXW9w1qpoO5bJHKPcN-30" vertex="1" connectable="0">
          <mxGeometry x="-0.1178" relative="1" as="geometry">
            <mxPoint as="offset" />
          </mxGeometry>
        </mxCell>
        <mxCell id="0JHXW9w1qpoO5bJHKPcN-13" value="" style="rounded=0;whiteSpace=wrap;html=1;" parent="1" vertex="1">
          <mxGeometry x="512.5" y="110" width="180" height="520" as="geometry" />
        </mxCell>
        <mxCell id="0JHXW9w1qpoO5bJHKPcN-14" value="&lt;font style=&quot;font-size: 21px;&quot;&gt;Browser&lt;/font&gt;" style="text;html=1;align=center;verticalAlign=middle;whiteSpace=wrap;rounded=0;" parent="1" vertex="1">
          <mxGeometry x="558.75" y="110" width="87.5" height="30" as="geometry" />
        </mxCell>
        <mxCell id="0JHXW9w1qpoO5bJHKPcN-16" value="" style="rounded=0;whiteSpace=wrap;html=1;" parent="1" vertex="1">
          <mxGeometry x="528.75" y="150" width="147.5" height="120" as="geometry" />
        </mxCell>
        <mxCell id="0JHXW9w1qpoO5bJHKPcN-15" value="&lt;font style=&quot;font-size: 21px;&quot;&gt;Hauptwebapp&lt;/font&gt;" style="text;html=1;align=center;verticalAlign=middle;whiteSpace=wrap;rounded=0;" parent="1" vertex="1">
          <mxGeometry x="538.75" y="160" width="127.5" height="25" as="geometry" />
        </mxCell>
        <mxCell id="0JHXW9w1qpoO5bJHKPcN-17" value="Rollenansicht: Kunde" style="rounded=0;whiteSpace=wrap;html=1;" parent="1" vertex="1">
          <mxGeometry x="545" y="200" width="115" height="40" as="geometry" />
        </mxCell>
        <mxCell id="0JHXW9w1qpoO5bJHKPcN-18" value="" style="rounded=0;whiteSpace=wrap;html=1;" parent="1" vertex="1">
          <mxGeometry x="528.75" y="310" width="147.5" height="120" as="geometry" />
        </mxCell>
        <mxCell id="0JHXW9w1qpoO5bJHKPcN-19" value="Rollenansicht: Verwalter" style="rounded=0;whiteSpace=wrap;html=1;" parent="1" vertex="1">
          <mxGeometry x="545" y="360" width="115" height="40" as="geometry" />
        </mxCell>
        <mxCell id="0JHXW9w1qpoO5bJHKPcN-20" value="&lt;font style=&quot;font-size: 16px;&quot;&gt;Verwaltungswebapp&lt;/font&gt;" style="text;html=1;align=center;verticalAlign=middle;whiteSpace=wrap;rounded=0;" parent="1" vertex="1">
          <mxGeometry x="523.75" y="320" width="157.5" height="25" as="geometry" />
        </mxCell>
        <mxCell id="0JHXW9w1qpoO5bJHKPcN-21" value="" style="rounded=0;whiteSpace=wrap;html=1;" parent="1" vertex="1">
          <mxGeometry x="528.75" y="470" width="147.5" height="120" as="geometry" />
        </mxCell>
        <mxCell id="0JHXW9w1qpoO5bJHKPcN-22" value="Rollenansicht: Admin" style="rounded=0;whiteSpace=wrap;html=1;" parent="1" vertex="1">
          <mxGeometry x="545" y="520" width="115" height="40" as="geometry" />
        </mxCell>
        <mxCell id="0JHXW9w1qpoO5bJHKPcN-23" value="&lt;font style=&quot;font-size: 16px;&quot;&gt;Adminwebapp&lt;/font&gt;" style="text;html=1;align=center;verticalAlign=middle;whiteSpace=wrap;rounded=0;" parent="1" vertex="1">
          <mxGeometry x="548.75" y="480" width="107.5" height="25" as="geometry" />
        </mxCell>
        <mxCell id="0JHXW9w1qpoO5bJHKPcN-27" style="edgeStyle=orthogonalEdgeStyle;rounded=0;orthogonalLoop=1;jettySize=auto;html=1;exitX=0.5;exitY=0.5;exitDx=0;exitDy=0;exitPerimeter=0;entryX=1;entryY=0.5;entryDx=0;entryDy=0;" parent="1" source="0JHXW9w1qpoO5bJHKPcN-24" target="0JHXW9w1qpoO5bJHKPcN-17" edge="1">
          <mxGeometry relative="1" as="geometry" />
        </mxCell>
        <mxCell id="0JHXW9w1qpoO5bJHKPcN-24" value="Kunde" style="shape=umlActor;verticalLabelPosition=bottom;verticalAlign=top;html=1;outlineConnect=0;" parent="1" vertex="1">
          <mxGeometry x="770" y="190" width="30" height="60" as="geometry" />
        </mxCell>
        <mxCell id="0JHXW9w1qpoO5bJHKPcN-28" style="edgeStyle=orthogonalEdgeStyle;rounded=0;orthogonalLoop=1;jettySize=auto;html=1;exitX=0.5;exitY=0.5;exitDx=0;exitDy=0;exitPerimeter=0;entryX=1;entryY=0.5;entryDx=0;entryDy=0;" parent="1" source="0JHXW9w1qpoO5bJHKPcN-25" target="0JHXW9w1qpoO5bJHKPcN-19" edge="1">
          <mxGeometry relative="1" as="geometry" />
        </mxCell>
        <mxCell id="0JHXW9w1qpoO5bJHKPcN-25" value="Verwalter" style="shape=umlActor;verticalLabelPosition=bottom;verticalAlign=top;html=1;outlineConnect=0;" parent="1" vertex="1">
          <mxGeometry x="771" y="350" width="30" height="60" as="geometry" />
        </mxCell>
        <mxCell id="0JHXW9w1qpoO5bJHKPcN-29" style="edgeStyle=orthogonalEdgeStyle;rounded=0;orthogonalLoop=1;jettySize=auto;html=1;exitX=0.5;exitY=0.5;exitDx=0;exitDy=0;exitPerimeter=0;entryX=1;entryY=0.5;entryDx=0;entryDy=0;" parent="1" source="0JHXW9w1qpoO5bJHKPcN-26" target="0JHXW9w1qpoO5bJHKPcN-22" edge="1">
          <mxGeometry relative="1" as="geometry" />
        </mxCell>
        <mxCell id="0JHXW9w1qpoO5bJHKPcN-26" value="Admin" style="shape=umlActor;verticalLabelPosition=bottom;verticalAlign=top;html=1;outlineConnect=0;" parent="1" vertex="1">
          <mxGeometry x="771" y="510" width="30" height="60" as="geometry" />
        </mxCell>
        <mxCell id="0JHXW9w1qpoO5bJHKPcN-31" style="edgeStyle=orthogonalEdgeStyle;rounded=0;orthogonalLoop=1;jettySize=auto;html=1;exitX=1;exitY=0.75;exitDx=0;exitDy=0;entryX=0.042;entryY=0.596;entryDx=0;entryDy=0;entryPerimeter=0;" parent="1" source="0JHXW9w1qpoO5bJHKPcN-1" target="0JHXW9w1qpoO5bJHKPcN-13" edge="1">
          <mxGeometry relative="1" as="geometry">
            <Array as="points">
              <mxPoint x="420" y="208" />
              <mxPoint x="420" y="420" />
            </Array>
          </mxGeometry>
        </mxCell>
        <mxCell id="0JHXW9w1qpoO5bJHKPcN-32" value="HTTP&amp;nbsp;&lt;div&gt;Respnse&lt;/div&gt;" style="edgeLabel;html=1;align=center;verticalAlign=middle;resizable=0;points=[];" parent="0JHXW9w1qpoO5bJHKPcN-31" vertex="1" connectable="0">
          <mxGeometry x="-0.1649" y="-5" relative="1" as="geometry">
            <mxPoint as="offset" />
          </mxGeometry>
        </mxCell>
      </root>
    </mxGraphModel>
  </diagram>
</mxfile>
